<svg width="40" height="77" viewBox="0 0 40 77" fill="none" xmlns="http://www.w3.org/2000/svg">
<path fill-rule="evenodd" clip-rule="evenodd" d="M31.873 1.05178C25.361 2.86278 25.284 2.94378 22.999 10.4008C21.868 14.0908 20.689 17.9328 20.378 18.9408C19.927 20.4058 20.279 20.7058 22.14 20.4408C24.06 20.1668 24.819 18.9368 26.483 13.4008L28.5 6.69278L34 4.90078C37.396 3.79478 39.5 2.53978 39.5 1.62278C39.5 -0.351223 37.466 -0.503223 31.873 1.05178ZM10.384 17.5218C6.441 19.3128 0.114 26.0558 1.281 27.2238C4.868 30.8108 37 30.1288 37 26.4658C37 24.5738 33.252 20.1448 30.088 18.2978C27.092 16.5498 26.961 16.5498 26.315 18.2978C25.413 20.7388 24.016 21.5748 20.809 21.5938C17.706 21.6108 16.127 19.8808 18.437 18.9948C19.296 18.6648 20 17.7678 20 17.0018C20 15.0248 15.327 15.2768 10.384 17.5218ZM0 31.4828C0 35.6498 2.011 36.1088 20.263 36.1088C30.347 36.1088 33.992 36.3808 31.763 36.9668C29.969 37.4388 22.538 37.6288 15.25 37.3898C7.962 37.1498 2 37.2388 2 37.5868C2 39.0188 7.124 71.2448 7.608 72.8568C8.127 74.5828 9.1 74.9518 16.048 76.0588C20.062 76.6978 28.664 75.3448 30.172 73.8368C31.489 72.5198 35.462 47.2558 34.675 45.2038C33.777 42.8648 28.875 43.2148 22 46.1088C15.447 48.8668 8.869 49.3618 7.1 47.2288C6.147 46.0818 6.69 45.9318 10.325 46.3418C13.473 46.6968 16.886 46.0788 22.525 44.1318C27.423 42.4418 31.412 41.6408 33.177 41.9938C36.057 42.5698 36.528 41.7378 36.227 36.6098C36.179 35.7848 36.783 34.7498 37.57 34.3098C38.356 33.8698 39 32.3538 39 30.9428C39 28.7478 38.674 28.4728 36.75 29.0478C29.693 31.1558 19.409 31.8938 11.644 30.8488C7.165 30.2458 2.713 29.4468 1.75 29.0738C0.315 28.5168 0 28.9498 0 31.4828ZM28.808 51.6838C28.611 52.2748 28.023 52.7588 27.5 52.7588C26.978 52.7588 26.389 52.2748 26.192 51.6838C25.995 51.0928 26.583 50.6088 27.5 50.6088C28.417 50.6088 29.005 51.0928 28.808 51.6838ZM25 57.1088C25 57.9338 24.352 58.6088 23.559 58.6088C21.888 58.6088 20.761 57.1818 21.694 56.2478C22.889 55.0528 25 55.6028 25 57.1088ZM28 62.6088C28 63.1588 27.55 63.6088 27 63.6088C26.45 63.6088 26 63.1588 26 62.6088C26 62.0588 26.45 61.6088 27 61.6088C27.55 61.6088 28 62.0588 28 62.6088Z" fill="black"/>
</svg>
