<svg width="159" height="187" viewBox="0 0 159 187" fill="none" xmlns="http://www.w3.org/2000/svg">
<mask id="path-1-inside-1_132_5" fill="white">
<path fill-rule="evenodd" clip-rule="evenodd" d="M63.9782 1.06892C61.9409 1.56972 59.5377 2.37945 58.6376 2.86839C56.1091 4.24041 53.4199 8.21495 52.3738 12.125C51.4078 15.7381 51.4471 15.9729 54.2067 22.9982C54.506 23.7597 52.8724 25.5066 49.0105 28.5544C30.1372 43.4487 12.564 73.1122 4.72305 103.311C0.604043 119.173 -0.330142 127.179 0.0928711 142.975C0.52107 158.959 1.80048 165.167 6.91738 176.075C11.4809 185.804 14.2234 187.952 17.6764 184.499C18.8321 183.343 19.1581 182.029 19.1581 178.523C19.1581 172.8 19.9411 171.409 23.7431 170.385C25.5122 169.909 27.7243 168.56 28.9466 167.211C30.1157 165.922 32.8478 162.994 35.0177 160.705C37.4291 158.161 39.4642 155.137 40.2532 152.926C40.9629 150.937 41.8808 148.392 42.2934 147.272C42.7068 146.152 43.5039 145.235 44.0655 145.235C45.1863 145.235 45.1893 145.261 45.413 157.829C45.5671 166.495 46.3643 169.91 48.6349 171.636C50.5877 173.119 54.2948 172.86 55.8602 171.13C57.1559 169.698 57.1826 168.964 56.3447 157.936C55.4135 145.693 55.9291 139.207 58.1027 135.823C59.0176 134.4 59.6043 134.245 62.6788 134.608C65.7628 134.974 66.4407 134.792 68.0735 133.159C69.1003 132.132 70.7123 128.897 71.6546 125.97C73.2074 121.148 73.5193 120.696 74.9706 121.158C79.7467 122.676 80.5735 122.52 83.4279 119.559C84.954 117.976 87.6358 114.088 89.3864 110.919C92.6327 105.042 94.3595 103.464 95.5271 105.307C96.4835 106.818 96.319 117.944 95.1337 131.875C94.2521 142.235 94.2492 144.441 95.1137 146.51C96.9576 150.923 102.011 151.344 104.642 147.306C106.038 145.164 107.297 131.268 107.313 117.824C107.326 107.675 108.106 100.558 109.604 96.9291C110.296 95.2548 110.767 94.9933 112.476 95.3348C116.04 96.0475 118.804 93.9243 121.364 88.5059C123.232 84.5528 123.92 83.7157 124.942 84.1535C127.546 85.27 130.331 85.3685 131.522 84.3869C132.197 83.8305 133.857 80.9502 135.21 77.9854C137.854 72.1936 138.894 71.2957 141.404 72.6381C143.674 73.8538 148.979 73.7049 151.595 72.3514C159.271 68.3828 161.179 58.9402 156.379 48.6834C143.416 20.9824 91.597 -5.72077 63.9782 1.06892ZM89.9272 5.26497C111.678 10.6197 132.673 23.1212 146.472 38.9334C149.587 42.5027 153.874 49.8058 152.707 49.5554C152.394 49.488 151.637 49.6243 151.025 49.8591C150.414 50.0932 149.053 50.4718 148 50.7007C145.936 51.1489 140.461 55.1546 141.074 55.7672C141.278 55.9724 140.518 55.9747 139.383 55.7724C137.148 55.3746 134.542 53.5877 129.912 49.2776C120.586 40.5965 113.402 35.4871 103.242 30.3116C91.7237 24.4435 81.5262 21.4758 66.9415 19.7467C54.9423 18.3235 55.2201 18.4747 55.6239 13.6104C56.1084 7.7623 59.1984 4.89678 66.5711 3.45735C70.5175 2.68689 83.5538 3.6959 89.9272 5.26497ZM76.893 27.5498C93.8447 31.2228 109.324 39.1979 121.889 50.7311C128.201 56.5251 135.198 65.0876 134.273 65.8862C133.912 66.1981 130.782 68.328 127.319 70.6186C123.856 72.91 120.022 75.654 118.799 76.7171L116.577 78.6507L120.281 76.5904C122.318 75.4569 126.652 72.9589 129.912 71.0394C133.49 68.9317 136.11 67.8153 136.525 68.2213C136.944 68.6324 136.748 69.4066 136.021 70.2097C135.366 70.9334 133.838 73.736 132.626 76.4378C131.414 79.1389 130.056 81.5762 129.607 81.8533C129.158 82.1303 127.612 81.9303 126.171 81.4095C122.66 80.1397 121.535 80.9317 118.797 86.6027C116.221 91.9381 115.216 92.7686 112.036 92.1878C109.253 91.6789 107.291 93.4294 105.916 97.6462C105.418 99.1775 104.717 108.03 104.35 117.454C103.287 144.678 102.97 146.716 99.7994 146.716C97.4584 146.716 97.148 143.915 98.1985 132.27C98.7504 126.158 99.1105 117.274 98.9994 112.529C98.829 105.262 98.5741 103.654 97.3858 102.342C96.6094 101.486 95.3152 100.785 94.5099 100.785C92.4467 100.785 88.9182 104.803 85.5303 111.011C81.7818 117.878 80.1949 119.581 78.151 118.929C72.0925 116.999 70.8657 117.637 69.1269 123.618C68.4572 125.921 67.4252 128.742 66.8341 129.886C65.7902 131.904 65.6302 131.951 61.4453 131.478L57.1322 130.989L55.0586 135.228C53.2443 138.936 52.9776 140.359 52.9258 146.61C52.8924 150.539 53.1428 157.172 53.4806 161.349C54.0215 168.021 53.9503 168.998 52.8976 169.402C52.2249 169.66 51.0618 169.285 50.2454 168.546C48.9401 167.365 48.7912 166.228 48.7912 157.454C48.7912 152.078 48.423 146.622 47.9726 145.33C46.9206 142.313 45.0204 141.255 42.6179 142.35C40.671 143.237 39.7835 144.787 37.5758 151.161C36.6105 153.948 35.0563 156.319 32.6619 158.66C30.735 160.544 28.1228 163.294 26.856 164.772C25.2573 166.637 23.9372 167.46 22.5392 167.46C21.3013 167.46 19.6915 168.294 18.3602 169.625C16.4266 171.559 16.1933 172.293 16.1837 176.478C16.1696 182.212 15.2998 184.088 13.6678 181.902C13.0603 181.089 12.0061 179.405 11.3253 178.161C10.1037 175.929 10.1185 175.864 12.3802 173.388C15.0243 170.493 14.8524 169.338 12.155 171.872C11.1586 172.808 9.89996 173.403 9.35767 173.195C8.12567 172.722 5.41128 164.496 3.95999 156.838C3.30807 153.398 2.85986 146.704 2.85986 140.416V129.8L6.60105 128.998C13.3626 127.548 16.4422 125.159 19.0959 119.306C22.3673 112.089 19.8145 103.381 13.1018 98.859L9.69326 96.5624L11.0823 92.5619C11.8461 90.3617 12.9907 87.1769 13.6256 85.4855L14.7805 82.4089L20.5753 82.8067C25.6714 83.1556 26.8516 82.9823 30.3579 81.371C35.8756 78.8344 38.7604 76.1918 40.9933 71.6291C44.7878 63.8726 43.9995 55.4316 38.8508 48.6864L36.332 45.3875L41.2651 39.9779C43.9788 37.0028 48.8653 32.4371 52.1249 29.8323L58.0516 25.0962L63.9441 25.5585C67.1852 25.8133 73.0118 26.709 76.893 27.5498ZM59.0872 37.2843C56.2699 39.1786 55.535 41.527 57.3018 42.9931C58.2968 43.8191 58.7813 43.6851 60.4859 42.1108C61.592 41.0899 63.0914 40.0446 63.8189 39.789C65.0591 39.352 65.065 39.2067 63.9189 37.4577C62.4247 35.1774 62.232 35.17 59.0872 37.2843ZM60.4029 39.7416C59.2598 40.8018 58.0967 41.4396 57.8182 41.1596C57.2344 40.5736 60.3911 37.8147 61.6453 37.8147C62.1054 37.8147 61.546 38.6822 60.4029 39.7416ZM71.4828 44.9163C61.7342 48.0078 56.1832 55.5857 56.2158 65.7573C56.2425 73.9575 60.2444 80.4775 67.6156 84.3306C72.7414 87.0102 80.8417 87.1554 85.9067 84.6595C98.9801 78.218 102.401 61.9065 92.8964 51.3348C87.375 45.1941 78.7555 42.6101 71.4828 44.9163ZM81.7581 47.0677L83.9805 48.1048L80.9254 47.6959C71.4146 46.4202 61.1349 54.1641 58.9909 64.2186C58.0553 68.605 57.3893 67.8205 58.0382 63.097C58.6961 58.3142 62.4187 52.1379 66.2007 49.5546C71.2242 46.1239 77.5635 45.1104 81.7581 47.0677ZM107.07 53.9766C106.4 54.716 105.646 56.3525 105.394 57.6119C105.025 59.4625 105.239 60.0648 106.512 60.7463C108.377 61.7442 109.539 61.2101 109.539 59.355C109.539 58.6187 110.216 57.1555 111.044 56.1036C112.537 54.2063 112.537 54.1833 111.093 53.4106C109.087 52.3372 108.475 52.4231 107.07 53.9766ZM108.623 56.94C107.726 59.315 106.576 60.1092 106.576 58.3527C106.576 57.2718 108.803 53.8714 109.232 54.2989C109.387 54.4545 109.112 55.6428 108.623 56.94ZM44.8078 80.9309C42.7846 84.058 42.5675 86.4982 44.2322 87.3895C46.328 88.5111 47.3096 88.3888 47.3096 87.0065C47.3096 86.3553 47.8533 84.6766 48.5178 83.2757C49.8535 80.4612 49.8461 80.4361 47.5362 79.7263C46.3191 79.353 45.6331 79.656 44.8078 80.9309ZM46.3694 84.135C45.9131 85.6211 45.2893 86.4671 44.9219 86.0997C44.2322 85.41 45.6738 81.5236 46.6184 81.5236C46.9221 81.5236 46.8102 82.6985 46.3694 84.135ZM23.1534 88.637C21.5702 92.4256 22.0243 94.434 24.5291 94.7222C26.1834 94.9126 26.5664 94.6622 26.5664 93.3894C26.5664 92.5271 27.0768 90.8336 27.7013 89.6268C28.8029 87.4969 28.7792 87.4102 26.9123 86.6998C24.2868 85.7019 24.4054 85.6411 23.1534 88.637ZM98.3341 88.823C91.9896 92.5308 80.6994 100.415 73.157 106.406L67.1763 111.156L64.116 108.536C54.6223 100.41 39.3308 103.388 32.7323 114.647C31.2632 117.154 30.6935 119.314 30.4335 123.357C30.029 129.667 30.9528 133.097 34.3488 137.886L36.7542 141.278L33.4042 145.294C28.7948 150.82 22.1214 159.705 22.1214 160.317C22.1214 160.594 25.2018 157.23 28.9674 152.842C47.6977 131.014 71.1212 109.595 94.3521 93.0524C105.774 84.9195 106.704 83.932 98.3341 88.823ZM25.5337 90.7839C24.698 93.4554 23.6031 94.2673 23.6031 92.2167C23.6031 90.7336 24.9528 88.191 25.7411 88.191C26.0737 88.191 25.9804 89.3578 25.5337 90.7839ZM58.4597 89.9312C58.0316 90.3594 57.6811 92.31 57.6811 94.2658C57.6811 97.7233 57.7426 97.8218 59.9036 97.8218C61.995 97.8218 62.1261 97.6507 62.1261 94.9192C62.1261 93.3228 62.3121 91.5314 62.5395 90.9388C63.047 89.6157 59.6221 88.7689 58.4597 89.9312ZM60.4067 93.7443C60.2489 96.8276 59.1628 97.2617 59.1628 94.2414C59.1628 92.4367 59.654 91.1544 60.3452 91.1544C60.4518 91.1544 60.4793 92.3197 60.4067 93.7443ZM55.4587 106.712C56.2765 107.241 55.775 107.433 53.5562 107.441C48.9986 107.458 43.1505 109.469 40.2502 112.016C36.2838 115.498 34.4954 118.441 33.1301 123.732C32.064 127.862 31.8729 128.182 31.8174 125.923C31.6373 118.624 36.5009 110.846 43.1935 107.73C47.1184 105.902 53.3992 105.38 55.4587 106.712ZM10.2111 136.288C7.67747 138.822 7.57968 139.398 9.4036 141.048C10.6838 142.207 10.9356 142.111 13.8026 139.384C16.6763 136.651 16.7719 136.426 15.5347 135.307C13.6848 133.633 12.681 133.818 10.2111 136.288ZM12.2499 138.141C11.1757 139.138 10.12 139.667 9.9044 139.319C9.46583 138.61 13.2463 135.372 13.8308 135.957C14.0367 136.162 13.3248 137.145 12.2499 138.141ZM15.2502 149.496C14.6042 150.209 13.6989 151.783 13.2396 152.993C12.5336 154.85 12.6047 155.34 13.6997 156.14C15.4725 157.436 16.9356 157.33 16.9356 155.906C16.9356 155.256 17.6586 153.709 18.5417 152.468C20.0975 150.284 20.1041 150.181 18.7706 149.206C16.9949 147.907 16.663 147.934 15.2502 149.496ZM16.4474 152.643C15.7251 153.865 14.8642 154.866 14.5346 154.866C14.2042 154.866 14.4516 153.865 15.0835 152.643C15.7155 151.421 16.5763 150.421 16.9963 150.421C17.4164 150.421 17.1697 151.421 16.4474 152.643Z"/>
</mask>
<path fill-rule="evenodd" clip-rule="evenodd" d="M63.9782 1.06892C61.9409 1.56972 59.5377 2.37945 58.6376 2.86839C56.1091 4.24041 53.4199 8.21495 52.3738 12.125C51.4078 15.7381 51.4471 15.9729 54.2067 22.9982C54.506 23.7597 52.8724 25.5066 49.0105 28.5544C30.1372 43.4487 12.564 73.1122 4.72305 103.311C0.604043 119.173 -0.330142 127.179 0.0928711 142.975C0.52107 158.959 1.80048 165.167 6.91738 176.075C11.4809 185.804 14.2234 187.952 17.6764 184.499C18.8321 183.343 19.1581 182.029 19.1581 178.523C19.1581 172.8 19.9411 171.409 23.7431 170.385C25.5122 169.909 27.7243 168.56 28.9466 167.211C30.1157 165.922 32.8478 162.994 35.0177 160.705C37.4291 158.161 39.4642 155.137 40.2532 152.926C40.9629 150.937 41.8808 148.392 42.2934 147.272C42.7068 146.152 43.5039 145.235 44.0655 145.235C45.1863 145.235 45.1893 145.261 45.413 157.829C45.5671 166.495 46.3643 169.91 48.6349 171.636C50.5877 173.119 54.2948 172.86 55.8602 171.13C57.1559 169.698 57.1826 168.964 56.3447 157.936C55.4135 145.693 55.9291 139.207 58.1027 135.823C59.0176 134.4 59.6043 134.245 62.6788 134.608C65.7628 134.974 66.4407 134.792 68.0735 133.159C69.1003 132.132 70.7123 128.897 71.6546 125.97C73.2074 121.148 73.5193 120.696 74.9706 121.158C79.7467 122.676 80.5735 122.52 83.4279 119.559C84.954 117.976 87.6358 114.088 89.3864 110.919C92.6327 105.042 94.3595 103.464 95.5271 105.307C96.4835 106.818 96.319 117.944 95.1337 131.875C94.2521 142.235 94.2492 144.441 95.1137 146.51C96.9576 150.923 102.011 151.344 104.642 147.306C106.038 145.164 107.297 131.268 107.313 117.824C107.326 107.675 108.106 100.558 109.604 96.9291C110.296 95.2548 110.767 94.9933 112.476 95.3348C116.04 96.0475 118.804 93.9243 121.364 88.5059C123.232 84.5528 123.92 83.7157 124.942 84.1535C127.546 85.27 130.331 85.3685 131.522 84.3869C132.197 83.8305 133.857 80.9502 135.21 77.9854C137.854 72.1936 138.894 71.2957 141.404 72.6381C143.674 73.8538 148.979 73.7049 151.595 72.3514C159.271 68.3828 161.179 58.9402 156.379 48.6834C143.416 20.9824 91.597 -5.72077 63.9782 1.06892ZM89.9272 5.26497C111.678 10.6197 132.673 23.1212 146.472 38.9334C149.587 42.5027 153.874 49.8058 152.707 49.5554C152.394 49.488 151.637 49.6243 151.025 49.8591C150.414 50.0932 149.053 50.4718 148 50.7007C145.936 51.1489 140.461 55.1546 141.074 55.7672C141.278 55.9724 140.518 55.9747 139.383 55.7724C137.148 55.3746 134.542 53.5877 129.912 49.2776C120.586 40.5965 113.402 35.4871 103.242 30.3116C91.7237 24.4435 81.5262 21.4758 66.9415 19.7467C54.9423 18.3235 55.2201 18.4747 55.6239 13.6104C56.1084 7.7623 59.1984 4.89678 66.5711 3.45735C70.5175 2.68689 83.5538 3.6959 89.9272 5.26497ZM76.893 27.5498C93.8447 31.2228 109.324 39.1979 121.889 50.7311C128.201 56.5251 135.198 65.0876 134.273 65.8862C133.912 66.1981 130.782 68.328 127.319 70.6186C123.856 72.91 120.022 75.654 118.799 76.7171L116.577 78.6507L120.281 76.5904C122.318 75.4569 126.652 72.9589 129.912 71.0394C133.49 68.9317 136.11 67.8153 136.525 68.2213C136.944 68.6324 136.748 69.4066 136.021 70.2097C135.366 70.9334 133.838 73.736 132.626 76.4378C131.414 79.1389 130.056 81.5762 129.607 81.8533C129.158 82.1303 127.612 81.9303 126.171 81.4095C122.66 80.1397 121.535 80.9317 118.797 86.6027C116.221 91.9381 115.216 92.7686 112.036 92.1878C109.253 91.6789 107.291 93.4294 105.916 97.6462C105.418 99.1775 104.717 108.03 104.35 117.454C103.287 144.678 102.97 146.716 99.7994 146.716C97.4584 146.716 97.148 143.915 98.1985 132.27C98.7504 126.158 99.1105 117.274 98.9994 112.529C98.829 105.262 98.5741 103.654 97.3858 102.342C96.6094 101.486 95.3152 100.785 94.5099 100.785C92.4467 100.785 88.9182 104.803 85.5303 111.011C81.7818 117.878 80.1949 119.581 78.151 118.929C72.0925 116.999 70.8657 117.637 69.1269 123.618C68.4572 125.921 67.4252 128.742 66.8341 129.886C65.7902 131.904 65.6302 131.951 61.4453 131.478L57.1322 130.989L55.0586 135.228C53.2443 138.936 52.9776 140.359 52.9258 146.61C52.8924 150.539 53.1428 157.172 53.4806 161.349C54.0215 168.021 53.9503 168.998 52.8976 169.402C52.2249 169.66 51.0618 169.285 50.2454 168.546C48.9401 167.365 48.7912 166.228 48.7912 157.454C48.7912 152.078 48.423 146.622 47.9726 145.33C46.9206 142.313 45.0204 141.255 42.6179 142.35C40.671 143.237 39.7835 144.787 37.5758 151.161C36.6105 153.948 35.0563 156.319 32.6619 158.66C30.735 160.544 28.1228 163.294 26.856 164.772C25.2573 166.637 23.9372 167.46 22.5392 167.46C21.3013 167.46 19.6915 168.294 18.3602 169.625C16.4266 171.559 16.1933 172.293 16.1837 176.478C16.1696 182.212 15.2998 184.088 13.6678 181.902C13.0603 181.089 12.0061 179.405 11.3253 178.161C10.1037 175.929 10.1185 175.864 12.3802 173.388C15.0243 170.493 14.8524 169.338 12.155 171.872C11.1586 172.808 9.89996 173.403 9.35767 173.195C8.12567 172.722 5.41128 164.496 3.95999 156.838C3.30807 153.398 2.85986 146.704 2.85986 140.416V129.8L6.60105 128.998C13.3626 127.548 16.4422 125.159 19.0959 119.306C22.3673 112.089 19.8145 103.381 13.1018 98.859L9.69326 96.5624L11.0823 92.5619C11.8461 90.3617 12.9907 87.1769 13.6256 85.4855L14.7805 82.4089L20.5753 82.8067C25.6714 83.1556 26.8516 82.9823 30.3579 81.371C35.8756 78.8344 38.7604 76.1918 40.9933 71.6291C44.7878 63.8726 43.9995 55.4316 38.8508 48.6864L36.332 45.3875L41.2651 39.9779C43.9788 37.0028 48.8653 32.4371 52.1249 29.8323L58.0516 25.0962L63.9441 25.5585C67.1852 25.8133 73.0118 26.709 76.893 27.5498ZM59.0872 37.2843C56.2699 39.1786 55.535 41.527 57.3018 42.9931C58.2968 43.8191 58.7813 43.6851 60.4859 42.1108C61.592 41.0899 63.0914 40.0446 63.8189 39.789C65.0591 39.352 65.065 39.2067 63.9189 37.4577C62.4247 35.1774 62.232 35.17 59.0872 37.2843ZM60.4029 39.7416C59.2598 40.8018 58.0967 41.4396 57.8182 41.1596C57.2344 40.5736 60.3911 37.8147 61.6453 37.8147C62.1054 37.8147 61.546 38.6822 60.4029 39.7416ZM71.4828 44.9163C61.7342 48.0078 56.1832 55.5857 56.2158 65.7573C56.2425 73.9575 60.2444 80.4775 67.6156 84.3306C72.7414 87.0102 80.8417 87.1554 85.9067 84.6595C98.9801 78.218 102.401 61.9065 92.8964 51.3348C87.375 45.1941 78.7555 42.6101 71.4828 44.9163ZM81.7581 47.0677L83.9805 48.1048L80.9254 47.6959C71.4146 46.4202 61.1349 54.1641 58.9909 64.2186C58.0553 68.605 57.3893 67.8205 58.0382 63.097C58.6961 58.3142 62.4187 52.1379 66.2007 49.5546C71.2242 46.1239 77.5635 45.1104 81.7581 47.0677ZM107.07 53.9766C106.4 54.716 105.646 56.3525 105.394 57.6119C105.025 59.4625 105.239 60.0648 106.512 60.7463C108.377 61.7442 109.539 61.2101 109.539 59.355C109.539 58.6187 110.216 57.1555 111.044 56.1036C112.537 54.2063 112.537 54.1833 111.093 53.4106C109.087 52.3372 108.475 52.4231 107.07 53.9766ZM108.623 56.94C107.726 59.315 106.576 60.1092 106.576 58.3527C106.576 57.2718 108.803 53.8714 109.232 54.2989C109.387 54.4545 109.112 55.6428 108.623 56.94ZM44.8078 80.9309C42.7846 84.058 42.5675 86.4982 44.2322 87.3895C46.328 88.5111 47.3096 88.3888 47.3096 87.0065C47.3096 86.3553 47.8533 84.6766 48.5178 83.2757C49.8535 80.4612 49.8461 80.4361 47.5362 79.7263C46.3191 79.353 45.6331 79.656 44.8078 80.9309ZM46.3694 84.135C45.9131 85.6211 45.2893 86.4671 44.9219 86.0997C44.2322 85.41 45.6738 81.5236 46.6184 81.5236C46.9221 81.5236 46.8102 82.6985 46.3694 84.135ZM23.1534 88.637C21.5702 92.4256 22.0243 94.434 24.5291 94.7222C26.1834 94.9126 26.5664 94.6622 26.5664 93.3894C26.5664 92.5271 27.0768 90.8336 27.7013 89.6268C28.8029 87.4969 28.7792 87.4102 26.9123 86.6998C24.2868 85.7019 24.4054 85.6411 23.1534 88.637ZM98.3341 88.823C91.9896 92.5308 80.6994 100.415 73.157 106.406L67.1763 111.156L64.116 108.536C54.6223 100.41 39.3308 103.388 32.7323 114.647C31.2632 117.154 30.6935 119.314 30.4335 123.357C30.029 129.667 30.9528 133.097 34.3488 137.886L36.7542 141.278L33.4042 145.294C28.7948 150.82 22.1214 159.705 22.1214 160.317C22.1214 160.594 25.2018 157.23 28.9674 152.842C47.6977 131.014 71.1212 109.595 94.3521 93.0524C105.774 84.9195 106.704 83.932 98.3341 88.823ZM25.5337 90.7839C24.698 93.4554 23.6031 94.2673 23.6031 92.2167C23.6031 90.7336 24.9528 88.191 25.7411 88.191C26.0737 88.191 25.9804 89.3578 25.5337 90.7839ZM58.4597 89.9312C58.0316 90.3594 57.6811 92.31 57.6811 94.2658C57.6811 97.7233 57.7426 97.8218 59.9036 97.8218C61.995 97.8218 62.1261 97.6507 62.1261 94.9192C62.1261 93.3228 62.3121 91.5314 62.5395 90.9388C63.047 89.6157 59.6221 88.7689 58.4597 89.9312ZM60.4067 93.7443C60.2489 96.8276 59.1628 97.2617 59.1628 94.2414C59.1628 92.4367 59.654 91.1544 60.3452 91.1544C60.4518 91.1544 60.4793 92.3197 60.4067 93.7443ZM55.4587 106.712C56.2765 107.241 55.775 107.433 53.5562 107.441C48.9986 107.458 43.1505 109.469 40.2502 112.016C36.2838 115.498 34.4954 118.441 33.1301 123.732C32.064 127.862 31.8729 128.182 31.8174 125.923C31.6373 118.624 36.5009 110.846 43.1935 107.73C47.1184 105.902 53.3992 105.38 55.4587 106.712ZM10.2111 136.288C7.67747 138.822 7.57968 139.398 9.4036 141.048C10.6838 142.207 10.9356 142.111 13.8026 139.384C16.6763 136.651 16.7719 136.426 15.5347 135.307C13.6848 133.633 12.681 133.818 10.2111 136.288ZM12.2499 138.141C11.1757 139.138 10.12 139.667 9.9044 139.319C9.46583 138.61 13.2463 135.372 13.8308 135.957C14.0367 136.162 13.3248 137.145 12.2499 138.141ZM15.2502 149.496C14.6042 150.209 13.6989 151.783 13.2396 152.993C12.5336 154.85 12.6047 155.34 13.6997 156.14C15.4725 157.436 16.9356 157.33 16.9356 155.906C16.9356 155.256 17.6586 153.709 18.5417 152.468C20.0975 150.284 20.1041 150.181 18.7706 149.206C16.9949 147.907 16.663 147.934 15.2502 149.496ZM16.4474 152.643C15.7251 153.865 14.8642 154.866 14.5346 154.866C14.2042 154.866 14.4516 153.865 15.0835 152.643C15.7155 151.421 16.5763 150.421 16.9963 150.421C17.4164 150.421 17.1697 151.421 16.4474 152.643Z" stroke="black" stroke-width="4" mask="url(#path-1-inside-1_132_5)"/>
</svg>
