<svg width="85" height="76" viewBox="0 0 85 76" fill="none" xmlns="http://www.w3.org/2000/svg">
<path fill-rule="evenodd" clip-rule="evenodd" d="M31.2391 1.00295C23.9001 2.73195 13.4931 8.83195 13.4931 11.4039C13.4931 12.0509 17.7231 15.9439 22.8921 20.0549C31.4881 26.8899 32.1081 27.6099 30.1421 28.4729C27.1971 29.7669 27.2721 33.999 30.2671 35.492C32.2571 36.484 31.6951 36.704 25.7671 37.255C22.0411 37.602 16.9091 38.171 14.3631 38.521L9.73312 39.1559L10.0341 34.652C10.3331 30.178 13.3081 23.0299 16.2741 19.6569C17.6861 18.0509 17.6131 17.6729 15.4441 15.3649C14.1361 13.9729 12.2231 12.9649 11.1921 13.1249C7.03912 13.7709 -1.50488 32.8549 0.229119 37.6119C0.469119 38.2689 2.31312 38.981 4.32912 39.194L7.99312 39.581L4.24312 39.749C0.692119 39.908 0.493119 40.094 0.493119 43.257C0.493119 47.266 5.46512 57.603 8.98312 60.908C11.4551 63.23 11.5381 63.239 12.9511 61.3479C14.3401 59.489 14.3721 59.501 13.8251 61.672C13.0811 64.625 14.7631 66.5119 20.9301 69.6459C32.4191 75.4829 43.9961 76.4339 56.1381 72.5369C57.7971 72.0049 58.2491 72.2439 58.1381 73.5949C58.0561 74.5789 58.8211 75.5109 59.8901 75.7299C61.5521 76.0719 61.7161 75.6759 61.2061 72.5369C60.5051 68.2129 62.0981 66.7479 63.4981 70.4299C65.1331 74.7309 67.8211 73.2549 68.8771 67.4739C69.7151 62.8839 69.6031 62.408 67.1881 60.331L64.6011 58.1059L58.7581 60.466C55.5451 61.7639 51.1331 63.108 48.9541 63.454L44.9931 64.0819L44.6851 51.3289C44.4071 39.7989 44.5291 38.702 45.9581 39.888C46.8671 40.642 47.2931 41.973 46.9601 43.02C46.6421 44.022 46.9011 45.812 47.5361 46.998C48.5061 48.81 49.3171 49.0699 52.6221 48.6269C56.1851 48.1489 56.8081 48.4199 59.2731 51.5289C60.7691 53.4149 63.6991 56.093 65.7831 57.479C67.8681 58.865 70.0221 61.178 70.5701 62.619L71.5661 65.2389L75.0681 61.8439C79.4611 57.5869 84.4931 47.662 84.4931 43.257C84.4931 40.182 84.2351 39.907 81.2431 39.785L77.9931 39.6539L81.4931 39.035C84.7901 38.452 84.9751 38.213 84.6791 34.916C84.5061 32.992 83.9551 29.8419 83.4541 27.9169C82.2181 23.1719 75.6831 12.9169 73.8941 12.9169C73.1001 12.9169 69.6341 15.1299 66.1931 17.8349L59.9351 22.7519L58.2611 19.8349C55.4261 14.8949 48.8811 16.6109 49.6661 22.0869C49.8461 23.3409 50.9491 24.8419 52.1181 25.4219C54.1631 26.4369 54.1001 26.5779 50.4581 29.1969C48.3761 30.6929 46.4081 31.9169 46.0831 31.9169C45.7591 31.9169 45.4931 26.6829 45.4931 20.2849V8.65395L49.5241 9.19395C55.3071 9.96995 63.0261 14.0069 62.8541 16.1669C62.6541 18.6899 64.4941 18.2619 68.4771 14.8579C72.9881 11.0029 72.1791 9.58495 62.7051 4.73995C54.8331 0.714949 44.8531 -1.28405 43.5071 0.894949C42.9631 1.77395 42.5461 1.81095 42.0591 1.02395C41.2671 -0.258051 36.6261 -0.267051 31.2391 1.00295ZM36.7621 4.57295C36.0851 4.84695 34.7351 4.86395 33.7621 4.60995C32.7891 4.35595 33.3431 4.13195 34.9931 4.11195C36.6431 4.09195 37.4391 4.29895 36.7621 4.57295ZM50.7431 4.57895C50.0561 4.85695 48.9311 4.85695 48.2431 4.57895C47.5561 4.30195 48.1181 4.07495 49.4931 4.07495C50.8681 4.07495 51.4311 4.30195 50.7431 4.57895ZM29.9931 5.91695C27.2441 7.09795 25.6651 7.09795 27.4931 5.91695C28.3181 5.38395 29.6681 4.97195 30.4931 5.00295C31.4821 5.03895 31.3121 5.34995 29.9931 5.91695ZM42.6591 18.1659C42.4751 25.4539 42.1821 31.5599 42.0081 31.7349C41.6531 32.0899 21.4931 15.8809 21.4931 15.2399C21.4931 14.0279 34.5321 8.91795 37.6261 8.91795C40.4181 8.91695 41.3811 8.45395 41.7831 6.91695C42.0701 5.81695 42.4601 4.91595 42.6491 4.91595C42.8381 4.91495 42.8431 10.8769 42.6591 18.1659ZM59.4931 6.91695C60.3181 7.44995 60.5431 7.88595 59.9931 7.88595C59.4431 7.88595 58.3181 7.44995 57.4931 6.91695C56.6681 6.38395 56.4431 5.94795 56.9931 5.94795C57.5431 5.94795 58.6681 6.38395 59.4931 6.91695ZM22.1471 9.50595C20.0521 10.9299 18.1291 11.8859 17.8731 11.6309C17.3231 11.0799 23.5551 6.95795 24.9751 6.93395C25.5151 6.92495 24.2431 8.08195 22.1471 9.50595ZM66.4931 10.8679C67.3181 11.4279 67.5431 11.8829 66.9931 11.8789C66.4431 11.8759 64.8681 10.9519 63.4931 9.82795C61.0491 7.82895 63.0241 8.51395 66.4931 10.8679ZM30.6931 13.1169C29.1501 14.6599 29.1501 18.1739 30.6931 19.7169C31.3531 20.3769 33.1631 20.9169 34.7141 20.9169C38.2841 20.9169 40.3051 17.3039 38.5611 14.0429C37.2891 11.6669 32.6851 11.1249 30.6931 13.1169ZM48.4931 13.9169C48.4931 14.4669 49.1681 14.9169 49.9931 14.9169C50.8181 14.9169 51.4931 14.4669 51.4931 13.9169C51.4931 13.3669 50.8181 12.9169 49.9931 12.9169C49.1681 12.9169 48.4931 13.3669 48.4931 13.9169ZM55.4931 14.4169C55.4931 15.2419 55.9431 15.9169 56.4931 15.9169C57.0431 15.9169 57.4931 15.2419 57.4931 14.4169C57.4931 13.5919 57.0431 12.9169 56.4931 12.9169C55.9431 12.9169 55.4931 13.5919 55.4931 14.4169ZM10.2321 20.5729C7.23212 25.3699 5.49312 30.341 5.49312 34.125C5.49312 35.726 5.09012 36.7859 4.59812 36.4819C2.87312 35.4159 6.11712 24.6099 9.77912 19.2279C12.7991 14.7889 13.1671 15.8809 10.2321 20.5729ZM77.6511 24.4169C79.2131 27.7169 80.4561 31.767 80.4131 33.417C80.3251 36.81 79.9291 36.0549 79.0611 30.8349C78.7341 28.8649 76.8961 24.6469 74.9781 21.4619C73.0591 18.2759 72.2371 16.2879 73.1501 17.0429C74.0631 17.7989 76.0881 21.1169 77.6511 24.4169ZM71.8341 24.8019C73.4651 27.7989 74.4931 31.2459 74.4931 33.7189C74.4931 36.0079 75.0331 37.968 75.7431 38.255C78.1981 39.245 70.7931 38.738 58.5131 37.075L46.0321 35.3839L56.5131 27.7419C62.2771 23.5379 67.4841 20.0579 68.0841 20.0079C68.6841 19.9579 70.3721 22.1149 71.8341 24.8019ZM18.4931 22.9169C18.4931 23.4669 18.9431 23.9169 19.4931 23.9169C20.0431 23.9169 20.4931 23.4669 20.4931 22.9169C20.4931 22.3669 20.0431 21.9169 19.4931 21.9169C18.9431 21.9169 18.4931 22.3669 18.4931 22.9169ZM38.1321 23.6109C37.0061 24.7369 37.4471 25.9169 38.9931 25.9169C39.8181 25.9169 40.4931 25.4939 40.4931 24.9759C40.4931 23.7149 38.9311 22.8119 38.1321 23.6109ZM22.4931 24.9169C22.4931 25.4669 23.1951 25.9169 24.0521 25.9169C24.9091 25.9169 25.3331 25.4669 24.9931 24.9169C24.6531 24.3669 23.9521 23.9169 23.4341 23.9169C22.9161 23.9169 22.4931 24.3669 22.4931 24.9169ZM67.9931 24.9169C67.6531 25.4669 68.0771 25.9169 68.9341 25.9169C69.7911 25.9169 70.4931 25.4669 70.4931 24.9169C70.4931 24.3669 70.0701 23.9169 69.5521 23.9169C69.0341 23.9169 68.3331 24.3669 67.9931 24.9169ZM14.6931 27.1169C11.6561 30.1539 15.3641 36.58 19.3581 35.202C21.3541 34.513 23.4931 31.9759 23.4931 30.2969C23.4931 26.7939 17.2661 24.5439 14.6931 27.1169ZM61.6931 28.1169C60.1501 29.6599 60.1501 33.1739 61.6931 34.7169C63.8791 36.9029 68.4231 36.166 69.6731 33.421C70.6131 31.359 70.4951 30.5769 68.9971 28.9209C66.9671 26.6779 63.5121 26.2979 61.6931 28.1169ZM39.2431 32.861C42.3471 35.45 42.0941 35.917 37.5871 35.917C33.7811 35.917 33.7111 35.8529 34.8371 33.4249C36.2111 30.4629 36.3481 30.445 39.2431 32.861ZM55.1321 31.6109C54.0061 32.7369 54.4471 33.917 55.9931 33.917C56.8181 33.917 57.4931 33.4939 57.4931 32.9759C57.4931 31.7149 55.9311 30.8119 55.1321 31.6109ZM39.4931 38.365C39.4931 38.612 34.0541 43.3929 27.4071 48.9889C20.7601 54.5859 15.8921 58.251 16.5911 57.132C17.7041 55.349 17.4711 54.656 14.6911 51.49C11.6381 48.012 9.67912 43.398 10.7861 42.29C11.0801 41.997 13.7211 41.593 16.6561 41.393C22.5701 40.989 36.4301 39.092 37.9931 38.472C39.4801 37.882 39.4931 37.881 39.4931 38.365ZM59.9931 39.91C74.7521 41.979 74.4931 41.91 74.4931 43.74C74.4931 45.575 72.4641 48.985 69.2111 52.616L67.2411 54.8139L61.9441 50.242C59.0311 47.727 56.3761 44.586 56.0441 43.263C55.6271 41.602 54.5121 40.6709 52.4461 40.2579C50.7991 39.9279 49.1791 39.219 48.8471 38.681C48.4981 38.115 49.0341 37.9319 50.1181 38.2459C51.1491 38.5439 55.5931 39.293 59.9931 39.91ZM42.0171 62.7149C41.5951 63.8149 40.3981 63.9799 36.7711 63.4359C31.1631 62.5949 21.4931 59.115 21.4931 57.938C21.4931 57.479 23.6781 55.2739 26.3491 53.0369C30.7571 49.3469 31.1641 49.1889 30.7561 51.3219C30.2871 53.7739 33.4501 56.917 36.3871 56.917C38.4921 56.917 41.4931 53.901 41.4931 51.785C41.4931 49.461 37.0541 46.5089 34.7511 47.3019C33.7841 47.6339 35.0181 46.0589 37.4931 43.8009L41.9931 39.695L42.2791 50.492C42.4361 56.43 42.3181 61.9299 42.0171 62.7149ZM26.1321 41.611C25.0061 42.737 25.4471 43.917 26.9931 43.917C27.8181 43.917 28.4931 43.4939 28.4931 42.9759C28.4931 41.7149 26.9311 40.812 26.1321 41.611ZM6.80912 45.748C7.12512 47.328 8.98012 50.712 10.9321 53.269C14.7081 58.215 14.9581 59.385 11.4451 55.667C8.05512 52.079 2.83212 40.772 5.25712 42.271C5.79512 42.603 6.49312 44.168 6.80912 45.748ZM79.5481 44.7249C78.2481 49.2589 75.8801 53.24 72.8931 55.917C70.1831 58.345 70.1931 58.3 73.2351 54.353C76.1551 50.563 77.5321 47.957 78.8801 43.667C79.7991 40.743 80.4121 41.7139 79.5481 44.7249ZM60.4931 44.917C60.4931 45.467 60.9431 45.917 61.4931 45.917C62.0431 45.917 62.4931 45.467 62.4931 44.917C62.4931 44.367 62.0431 43.917 61.4931 43.917C60.9431 43.917 60.4931 44.367 60.4931 44.917ZM15.4931 46.4759C15.4931 47.3329 15.9431 47.757 16.4931 47.417C17.0431 47.077 17.4931 46.376 17.4931 45.858C17.4931 45.34 17.0431 44.917 16.4931 44.917C15.9431 44.917 15.4931 45.6189 15.4931 46.4759ZM21.1321 45.611C20.0061 46.737 20.4471 47.917 21.9931 47.917C22.8181 47.917 23.4931 47.4939 23.4931 46.9759C23.4931 45.7149 21.9311 44.812 21.1321 45.611ZM65.4931 46.417C65.4931 47.334 65.9771 47.9219 66.5681 47.7249C67.1591 47.5279 67.6431 46.94 67.6431 46.417C67.6431 45.894 67.1591 45.306 66.5681 45.109C65.9771 44.912 65.4931 45.5 65.4931 46.417ZM51.5461 53.353C50.1061 55.088 51.7651 58.917 53.9571 58.917C56.5631 58.917 58.5941 55.9739 57.4561 53.8479C56.2381 51.5729 53.2321 51.321 51.5461 53.353ZM48.0361 54.8479C47.7191 55.36 47.9181 56.061 48.4771 56.407C49.0361 56.752 49.4931 56.3329 49.4931 55.4759C49.4931 53.7189 48.8931 53.461 48.0361 54.8479ZM26.0361 55.8479C25.3531 56.953 26.9301 58.147 27.8541 57.2229C28.8041 56.272 28.6271 54.917 27.5521 54.917C27.0341 54.917 26.3521 55.3359 26.0361 55.8479ZM37.4931 59.917C37.4931 60.467 37.9431 60.917 38.4931 60.917C39.0431 60.917 39.4931 60.467 39.4931 59.917C39.4931 59.367 39.0431 58.917 38.4931 58.917C37.9431 58.917 37.4931 59.367 37.4931 59.917ZM33.2661 66.4459C38.5701 67.8089 38.6611 67.8779 34.4931 67.3789C30.2391 66.8689 17.4931 61.6759 17.4931 60.4529C17.4931 60.1399 19.7531 61.029 22.5161 62.428C25.2781 63.828 30.1161 65.6359 33.2661 66.4459ZM65.4931 61.472C65.4931 62.639 54.7891 66.8479 50.4931 67.3709C46.3631 67.8729 46.4661 67.7959 51.7451 66.4399C54.9091 65.6269 59.1841 64.072 61.2451 62.984C65.5421 60.716 65.4931 60.733 65.4931 61.472Z" fill="black"/>
</svg>
