<svg width="100" height="58" viewBox="0 0 100 58" fill="none" xmlns="http://www.w3.org/2000/svg">
<path fill-rule="evenodd" clip-rule="evenodd" d="M14.3192 0.613933C10.9724 1.80563 9.53415 3.98633 10.3893 6.57288C10.8525 7.97543 10.7412 8.28062 8.63726 11.3823C2.24277 20.8098 -0.435192 30.093 0.0570759 41.1289C0.323646 47.1047 0.827721 49.2155 2.44576 51.136C3.21368 52.047 3.56381 53.0142 3.56381 54.2236C3.56381 56.5226 4.61237 58 6.24403 58C8.23354 58 9.10636 56.626 9.44242 52.9657C9.71534 49.9955 9.86475 49.6323 11.3061 48.4388C12.8606 47.1518 13.8556 46.7174 13.3397 47.5504C13.1921 47.7889 13.3742 48.7072 13.7439 49.591C14.2947 50.9069 14.6548 51.1981 15.7315 51.1981C17.0503 51.1981 18.167 50.3007 18.6938 48.8174C18.8486 48.3807 19.3654 48.0238 19.8423 48.0238C21.3636 48.0238 21.7205 46.9772 21.6864 42.6186C21.6601 39.2276 21.8059 38.2608 22.4512 37.5484C23.2377 36.6809 23.2654 36.6846 24.4434 37.8114C27.1296 40.3812 30.1113 38.7088 30.6249 34.3452L30.9242 31.8008L32.6944 32.0379C33.9773 32.2093 34.6998 32.062 35.3196 31.502C36.1375 30.7633 36.1884 30.7923 36.4908 32.1676C36.6648 32.9585 37.6039 34.4009 38.5775 35.3732C39.5512 36.3454 40.3477 37.2165 40.3477 37.3085C40.3477 37.401 39.4226 37.7348 38.2923 38.0509C37.162 38.3669 36.148 38.7696 36.0394 38.9455C35.9304 39.1215 36.5589 40.4111 37.4363 41.8114L39.0312 44.3581L37.8836 48.0905C37.2519 50.1438 36.8014 51.8891 36.8818 51.9694C36.9622 52.0497 40.5884 51.2153 44.9393 50.1152C61.7945 45.854 78.1474 44.31 90.9323 45.7724C93.1525 46.0263 95.0376 46.166 95.1212 46.083C95.2043 45.9996 94.7338 44.29 94.0749 42.2839L92.8778 38.6367L94.5903 35.8216C95.5321 34.2731 96.2124 32.9163 96.1021 32.8057C95.9913 32.6955 94.2461 32.3717 92.2234 32.086L88.5459 31.5663L90.2961 30.386C91.2588 29.7366 92.6875 28.3889 93.4709 27.3913C94.2542 26.3937 95.6302 25.0673 96.528 24.4438C97.4263 23.8203 98.5793 22.7479 99.0902 22.0604C101.011 19.4766 99.6787 15.4743 97.0721 15.9949C96.1234 16.1845 95.7715 16.0081 95.3782 15.146C93.8096 11.7083 86.9265 11.6861 82.4412 15.1048L80.4485 16.6239L79.2414 15.1125C77.34 12.7336 73.9972 12.1056 69.4742 13.2769L67.0682 13.9004L68.644 12.2566C70.7498 10.0605 71.6821 8.09696 71.6821 5.85822C71.6821 2.40239 69.6881 0.863792 65.2086 0.863792C60.5879 0.863792 53.8991 3.3474 47.65 7.38457L44.4257 9.46733L41.3649 7.36145C37.1466 4.45929 31.6631 1.96072 27.1296 0.875583C22.7228 -0.17917 16.8814 -0.298885 14.3192 0.613933ZM25.7213 2.489C34.3288 4.25569 45.4566 11.1148 45.4566 14.654C45.4566 17.0524 43.2541 19.0023 40.5452 19.0023C39.7532 19.0023 39.4394 19.2521 39.4394 19.8829C39.4394 20.5454 38.9068 20.9136 37.2892 21.3698C34.8592 22.0554 34.0072 23.2217 33.9968 25.8804C33.9836 29.1013 33.0745 29.752 30.9351 28.0715C30.2998 27.5727 29.3121 27.1646 28.7394 27.1646C27.2326 27.1646 25.8158 29.1907 25.8158 31.3446C25.8158 33.6201 26.8344 33.4555 27.2145 31.1188C27.487 29.446 28.3221 28.0715 29.0664 28.0715C29.2971 28.0715 29.2721 28.4601 29.0105 28.9485C28.7521 29.431 28.5405 30.6422 28.5405 31.6398C28.5405 34.4186 27.8643 35.7804 26.4847 35.7804C25.5928 35.7804 25.2014 35.457 24.8394 34.42C24.2863 32.836 23.2296 32.6673 21.8567 33.9447C20.2655 35.4253 19.7614 37.7756 20.0934 42.1674C20.4095 46.3469 20.0225 47.4212 18.6824 46.0835C18.0934 45.4953 18.0671 44.855 18.499 41.6495C19.1534 36.7934 19.137 36.2338 18.3387 36.2338C17.078 36.2338 16.6489 38.0459 16.7429 42.9696C16.7937 45.6246 16.8124 48.0524 16.7842 48.3639C16.7111 49.177 15.5195 49.0641 15.1925 48.2134C14.7302 47.0104 14.8846 43.6021 15.4586 42.3442C15.9005 41.3761 15.8796 41.0804 15.3451 40.7435C14.346 40.1127 13.9069 40.4143 12.3129 42.8231C11.5055 44.0443 10.3357 45.3094 9.71353 45.635C8.00921 46.5265 7.6509 47.598 7.6509 51.7998C7.6509 54.9242 7.51376 55.6883 6.91205 55.9186C5.09147 56.6165 4.60375 54.6947 5.64369 50.9206C5.84077 50.2054 5.66685 49.8998 4.9566 49.7143C3.10878 49.2319 2.46211 46.5877 2.49072 39.6348C2.53704 28.2456 5.57738 18.756 11.8243 10.5035C13.8515 7.82534 13.9528 7.55598 13.7089 5.50044C13.4273 3.1243 13.836 2.46769 15.8251 2.10265C18.3073 1.64692 22.3962 1.80654 25.7213 2.489ZM68.9574 3.1311C70.1317 4.30375 70.1086 6.12849 68.8938 8.11918C67.674 10.1176 65.9815 11.6421 64.0424 12.4887C62.2046 13.2905 61.0847 12.9953 60.4172 11.5324C59.944 10.4949 60.0729 10.3321 62.5647 8.82069C65.6105 6.97283 65.7726 6.93202 65.7949 8.00582C65.8076 8.61618 66.0714 8.48558 66.9397 7.43899C68.4492 5.61925 68.283 3.86435 66.5819 3.66845C64.9434 3.48027 59.9962 6.09674 56.3478 9.08188C49.1386 14.9801 44.0374 25.9303 47.1772 28.7676C48.5587 30.016 51.9251 29.8214 54.9345 28.3191C57.899 26.839 59.498 25.3884 61.4562 22.4032C64.6986 17.4596 69.2684 14.4677 73.5772 14.4677C75.8986 14.4677 78.0398 15.3347 78.0398 16.2742C78.0398 16.4919 76.929 16.5549 75.5717 16.4153C73.4564 16.1972 72.8133 16.3305 71.0736 17.3485C68.1227 19.0757 64.4162 24.4016 64.4162 26.9152C64.4162 27.6652 64.6677 28.0715 65.1309 28.0715C66.2917 28.0715 70.1744 23.9786 71.7988 21.0429C73.0118 18.8508 73.5513 18.2935 74.5749 18.1747C77.2124 17.8695 77.2864 18.2618 75.3255 22.1561C73.4282 25.9235 73.0549 27.618 74.1221 27.618C74.8401 27.618 78.4939 23.8062 78.4939 23.0571C78.4939 21.7067 82.0211 17.4074 84.3671 15.8979C86.5764 14.4767 87.2576 14.2695 89.7693 14.2563C93.2288 14.2377 93.9341 14.9025 93.9341 18.182C93.9341 19.3814 94.0499 20.3627 94.1911 20.3627C94.7833 20.3627 96.4508 19.2548 97.1924 18.3688C97.8 17.6432 97.9944 17.5811 98.0062 18.1076C98.0443 19.8657 94.4795 22.581 92.0222 22.6658C91.45 22.6853 91.238 22.8046 91.5499 22.9302C92.4832 23.3061 92.2021 24.3159 90.6848 26.0418C89.0477 27.9033 86.7085 29.2147 83.8993 29.845C81.2763 30.4331 79.097 29.5403 78.4195 27.5995L77.9272 26.1887L76.5076 27.5328C74.2529 29.6677 72.2289 30.5266 70.8897 29.9171C69.9569 29.4931 69.8039 29.1621 69.9751 27.9459C70.0886 27.1419 70.3402 26.1185 70.5336 25.6709C70.7275 25.2238 69.6663 26.0758 68.1754 27.5645C66.2195 29.5176 65.002 30.3583 63.8031 30.5828C61.6587 30.9845 59.8749 29.9185 59.8749 28.2352V27.0589L58.1325 28.6311C54.702 31.7255 47.9574 34.0187 44.3004 33.3335C41.3286 32.7771 38.5167 29.6087 38.5435 26.8472C38.5589 25.2732 41.0938 22.4291 42.8803 21.9815C47.3552 20.8601 49.664 15.0712 46.9302 11.8267L45.7926 10.4767L49.4724 8.11964C55.697 4.13235 60.6615 2.30852 65.4379 2.25411C67.4701 2.23098 68.2503 2.42506 68.9574 3.1311ZM14.5054 5.39841C14.4487 6.74247 15.2007 7.07894 18.8791 7.3551C25.5429 7.85572 31.565 10.4264 36.276 14.7814L38.9354 17.2401L39.6461 15.867C40.4944 14.2296 41.864 13.4047 43.0897 13.7929C44.4938 14.2377 44.2009 12.715 42.7781 12.1749C41.8349 11.8167 41.1864 11.9106 39.7691 12.6112L37.9622 13.5036L35.6289 11.7446C30.7544 8.06976 24.19 5.87591 18.0199 5.85958C16.0295 5.85459 14.9141 5.65779 14.7634 5.28505C14.6076 4.89915 14.5254 4.93497 14.5054 5.39841ZM14.8546 8.12689C14.4459 8.36541 13.4655 9.56482 12.6767 10.7923L11.2426 13.0247L12.3683 14.1489C15.8092 17.5847 12.8411 23.877 7.86934 23.6847C6.00653 23.6126 5.85076 23.7001 5.39846 25.0691C4.44889 27.9423 3.56517 34.2608 3.56426 38.181C3.56381 41.7275 3.65191 42.1538 4.35852 42.0354C4.88893 41.9465 5.20137 42.2413 5.29855 42.9224C5.39573 43.6085 5.21 43.9427 4.7309 43.9427C3.96752 43.9427 3.85353 44.3476 4.29358 45.4926C4.85669 46.9587 6.28763 46.2871 7.21813 44.12C8.08232 42.1071 8.17178 42.0404 9.64586 42.3166C11.0877 42.5868 11.2171 42.5034 11.8711 40.8922C12.8184 38.5578 21.7014 29.9656 27.4052 25.8668C29.9029 24.072 32.8306 21.8954 33.9119 21.0297C34.9927 20.164 36.2579 19.4557 36.7233 19.4557C38.3827 19.4557 38.0648 18.5597 35.4781 15.9455C30.3361 10.7488 18.2292 6.15887 14.8546 8.12689ZM18.0957 10.8241C18.0957 11.7841 16.5444 12.871 15.8156 12.4212C15.3101 12.1092 15.2179 10.6903 15.6739 10.2355C15.8401 10.0691 16.4531 9.93303 17.0362 9.93303C17.7865 9.93303 18.0957 10.1929 18.0957 10.8241ZM26.5015 12.3999C28.209 13.1123 29.8983 15.4471 29.9011 17.0977C29.9033 18.4785 28.9088 20.3264 27.4116 21.723C26.3739 22.6916 25.7667 22.8567 23.2468 22.8567C20.4199 22.8567 20.2314 22.786 18.7419 21.163C14.2693 16.2892 20.0839 9.72217 26.5015 12.3999ZM19.6384 14.6785C18.974 15.1682 18.8995 15.4381 19.3141 15.8575C19.9799 16.5327 21.2746 16.091 21.2746 15.1887C21.2746 14.1797 20.6002 13.9693 19.6384 14.6785ZM86.9202 16.774C83.2895 19.9573 81.1678 27.6117 83.8126 27.9876C84.5165 28.0874 85.467 27.4807 86.991 25.9588C88.5714 24.3812 89.476 23.8153 90.3011 23.8879C91.1658 23.9641 91.059 23.8534 89.8524 23.4222C88.9396 23.0966 88.1985 22.4926 88.1036 21.9969C87.9801 21.3535 88.1277 21.2097 88.6908 21.4256C90.104 21.967 91.435 17.1417 90.2103 15.9187C89.3638 15.0735 88.6472 15.2598 86.9202 16.774ZM9.46739 17.1884C9.46739 17.4378 9.67175 17.6419 9.92151 17.6419C10.1713 17.6419 10.3756 17.4378 10.3756 17.1884C10.3756 16.939 10.1713 16.735 9.92151 16.735C9.67175 16.735 9.46739 16.939 9.46739 17.1884ZM34.4441 17.8201C34.4441 19.3727 32.5104 20.0797 31.9873 18.718C31.6285 17.7847 32.4778 16.735 33.5913 16.735C34.188 16.735 34.4441 17.061 34.4441 17.8201ZM27.1781 17.6686C27.1781 17.9326 27.3825 18.0228 27.6323 17.8686C27.882 17.7144 28.0864 17.4986 28.0864 17.3884C28.0864 17.2782 27.882 17.1884 27.6323 17.1884C27.3825 17.1884 27.1781 17.4047 27.1781 17.6686ZM8.19585 18.6395C7.89613 18.9388 7.6509 19.3469 7.6509 19.5464C7.6509 20.087 8.91291 19.9849 9.26485 19.4163C9.7326 18.6608 8.83071 18.0056 8.19585 18.6395ZM24.8789 19.2635C24.3885 19.8534 24.3917 20.0443 24.8957 20.3554C25.7754 20.8982 26.724 20.4062 26.724 19.4072C26.724 18.3642 25.6927 18.284 24.8789 19.2635ZM16.2792 23.2548C16.2792 23.5981 15.9641 24.1405 15.579 24.4597C14.7157 25.1753 13.7493 24.4125 14.1612 23.3405C14.4977 22.4649 16.2792 22.3928 16.2792 23.2548ZM31.8102 24.5345C31.0523 25.2913 31.129 26.2577 31.9464 26.2577C32.3701 26.2577 32.6276 25.8296 32.6276 25.124C32.6276 23.8312 32.5618 23.784 31.8102 24.5345ZM9.46739 25.5507C9.46739 26.3633 8.71718 26.8621 8.08277 26.4708C7.75762 26.2699 7.77488 25.9747 8.13863 25.5371C8.82481 24.7114 9.46739 24.7182 9.46739 25.5507ZM21.8663 25.528C21.9866 26.0722 20.4889 26.985 20.1047 26.6014C19.5811 26.0785 20.3277 24.8229 21.0702 24.9771C21.4589 25.0578 21.8168 25.3058 21.8663 25.528ZM17.0975 27.3451C17.7728 27.6933 18.6852 28.3762 19.1261 28.8624C19.9036 29.7203 19.8137 29.855 16.0703 33.4437C11.6921 37.6405 10.6726 37.9606 8.52418 35.8153C7.46335 34.756 7.19678 34.093 7.19678 32.515C7.19678 30.2649 8.03827 28.8292 10.0882 27.5809C11.7875 26.5461 15.3206 26.4273 17.0975 27.3451ZM10.6027 28.525C10.4483 28.7744 10.5387 28.9784 10.803 28.9784C11.0673 28.9784 11.2839 28.7744 11.2839 28.525C11.2839 28.2756 11.194 28.0715 11.0836 28.0715C10.9733 28.0715 10.7571 28.2756 10.6027 28.525ZM15.8251 28.525C15.8251 28.7744 16.0295 28.9784 16.2792 28.9784C16.529 28.9784 16.7333 28.7744 16.7333 28.525C16.7333 28.2756 16.529 28.0715 16.2792 28.0715C16.0295 28.0715 15.8251 28.2756 15.8251 28.525ZM13.257 29.2247C13.109 29.6097 13.1022 30.0382 13.2411 30.1769C13.639 30.5742 14.4627 29.9008 14.4627 29.1784C14.4627 28.3082 13.5963 28.3418 13.257 29.2247ZM8.8289 30.6172C8.40202 31.7296 9.28302 32.491 10.2748 31.8665C11.3556 31.1854 11.2548 30.1402 10.0927 29.9747C9.50826 29.8917 9.011 30.1443 8.8289 30.6172ZM13.5545 32.1527C13.5545 32.4021 13.861 32.6061 14.2357 32.6061C14.6103 32.6061 14.9169 32.4021 14.9169 32.1527C14.9169 31.9033 14.6103 31.6992 14.2357 31.6992C13.861 31.6992 13.5545 31.9033 13.5545 32.1527ZM21.0752 32.7639C20.4353 33.4029 19.9122 34.1855 19.9122 34.5039C19.9122 34.8222 20.5657 34.43 21.3649 33.6323C22.1637 32.8347 22.6869 32.0515 22.5275 31.8924C22.3681 31.7332 21.7146 32.1255 21.0752 32.7639ZM87.0491 37.9035C88.0809 40.5676 88.877 42.7832 88.8184 42.8272C88.7598 42.8711 87.9569 42.8131 87.0342 42.6979C85.8176 42.5465 85.3185 42.2476 85.2177 41.611C85.1414 41.1276 84.9252 40.7408 84.7381 40.7503C84.551 40.7603 83.6632 40.7684 82.7654 40.7684C81.5157 40.7684 81.0779 40.9807 80.8962 41.6754C80.7296 42.3111 80.2768 42.5823 79.3808 42.5823H78.1034L79.434 38.9414C80.1656 36.939 80.7645 34.7963 80.7645 34.1801C80.7645 33.1421 80.9271 33.0596 82.9689 33.0596H85.1736L87.0491 37.9035ZM10.3756 33.9665C10.3756 34.2159 10.6944 34.42 11.0836 34.42C11.4728 34.42 11.6653 34.2159 11.5109 33.9665C11.3565 33.7171 11.0382 33.5131 10.803 33.5131C10.5677 33.5131 10.3756 33.7171 10.3756 33.9665ZM76.6774 34.3293C76.6774 34.7782 75.7351 36.4388 74.583 38.0196L72.4886 40.8936L74.8201 40.67C77.0244 40.4583 77.1352 40.4982 76.8577 41.401C76.6965 41.9261 76.5389 42.3887 76.5076 42.429C76.4763 42.4694 74.7606 42.649 72.6953 42.8285C68.2816 43.2117 68.2916 43.2493 71.5872 38.5936C72.6989 37.0233 73.5322 35.6638 73.44 35.5722C73.3474 35.4806 72.4032 35.5645 71.3415 35.7591C69.5268 36.091 69.4115 36.0497 69.4115 35.0666C69.4115 33.9579 70.0768 33.7738 74.7474 33.5892C76.3314 33.5267 76.6774 33.6595 76.6774 34.3293ZM68.0491 34.3574C68.0491 34.5719 67.0237 36.2556 65.7708 38.0985C63.3381 41.6758 63.4175 42.1184 66.3466 41.3108C67.8334 40.9009 67.8693 40.9226 67.6913 42.132C67.5255 43.2593 67.2894 43.4003 65.1437 43.652C63.8431 43.8048 62.1256 44.0601 61.3268 44.2197C59.2219 44.6401 59.4158 43.5976 62.1669 39.7042C64.6019 36.2583 64.5024 35.6407 61.671 36.6265C60.4285 37.0587 60.3291 37.0133 60.3291 36.0112C60.3291 34.8816 60.3041 34.8898 65.5515 34.2649C66.3008 34.1756 67.1695 34.0717 67.4815 34.0345C67.7939 33.9969 68.0491 34.1425 68.0491 34.3574ZM58.1429 40.0892C58.2814 44.7163 58.2574 44.8514 57.301 44.8505C56.7592 44.8501 56.0063 44.9684 55.628 45.1135C55.0449 45.3366 54.9177 44.6437 54.796 40.5775C54.6457 35.5477 54.6929 35.4239 56.7805 35.3627L57.9999 35.3269L58.1429 40.0892ZM82.4135 36.3853C82.2581 37.0038 82.0057 37.835 81.8531 38.2322C81.6369 38.7954 81.8799 38.9546 82.9548 38.9546C84.289 38.9546 84.3208 38.9074 83.9198 37.5112C83.3376 35.4847 82.7504 35.0458 82.4135 36.3853ZM52.3497 36.9462C52.742 37.3385 53.0631 38.3678 53.0631 39.2344C53.0631 41.2033 51.604 42.7564 49.0314 43.5264C47.3421 44.0316 47.1595 44.2284 47.1595 45.5466C47.1595 46.8544 46.982 47.0516 45.4566 47.4393L43.7536 47.8719L43.8935 42.5279L44.0333 37.1838L45.937 36.7571C48.9774 36.0765 51.5541 36.1522 52.3497 36.9462ZM6.75855 39.1623C6.43885 39.5468 5.89572 39.8615 5.55195 39.8615C4.65915 39.8615 4.77722 38.6299 5.72089 38.0985C6.78671 37.4981 7.5183 38.2481 6.75855 39.1623ZM47.1595 40.2864C47.1595 42.4027 47.9392 42.7106 49.4578 41.1942C50.7811 39.8729 50.4283 38.7592 48.6318 38.5859C47.1899 38.4467 47.1595 38.4816 47.1595 40.2864Z" fill="#E47E00"/>
</svg>
