<svg width="83" height="77" viewBox="0 0 83 77" fill="none" xmlns="http://www.w3.org/2000/svg">
<path fill-rule="evenodd" clip-rule="evenodd" d="M9.414 2.28836C8.138 3.64736 7.24 5.89636 7.24 7.73236C7.24 10.1484 6.557 11.2654 4.239 12.6344C2.588 13.6094 0.988 15.1924 0.683 16.1534C-0.12 18.6844 1.798 21.6464 4.714 22.3784C7.917 23.1824 7.926 24.3414 4.74 25.7924C2.868 26.6454 2.24 27.6984 2.24 29.9844C2.24 34.0724 4.439 34.6844 7.638 31.4854C9.078 30.0454 10.68 29.1284 11.198 29.4484C11.716 29.7684 12.656 29.0644 13.288 27.8844C14.284 26.0224 15.085 25.8014 19.338 26.2094C22.034 26.4684 24.24 26.2684 24.24 25.7654C24.24 25.2614 20.978 23.2824 16.99 21.3664L9.74 17.8834L14.49 18.4904C17.103 18.8234 19.24 18.9564 19.239 18.7854C19.239 18.6144 18.305 15.9994 17.163 12.9744C14.969 7.15936 15.175 7.18936 19.686 13.3424L22.522 17.2104L23.832 14.0924C25.707 9.63336 26.173 10.2204 25.551 16.2544C25.12 20.4214 25.356 21.8254 26.667 22.9144C28.125 24.1234 28.785 23.8564 32.035 20.7444C34.073 18.7924 37.238 16.4404 39.068 15.5184C42.206 13.9384 42.312 13.7174 40.917 11.6584C39.878 10.1254 38.514 9.51836 36.339 9.62136C33.583 9.75336 33.24 9.46236 33.24 6.99436C33.24 3.03436 31.039 1.59136 26.182 2.36736C23.318 2.82536 21.501 2.57036 19.965 1.49436C16.723 -0.776638 11.957 -0.417638 9.414 2.28836ZM56.099 7.95036C54.396 10.2554 53.37 10.7944 51.557 10.3394C49.116 9.72636 46.195 11.3984 46.302 13.3464C46.336 13.9674 48.815 15.6874 51.811 17.1694L57.259 19.8654L58.698 16.4194C60.647 11.7564 61.567 12.0784 60.715 17.1244C60.07 20.9384 60.165 21.2024 61.877 20.3834C62.902 19.8924 66.553 19.4874 69.991 19.4834C76.108 19.4744 76.241 19.4164 76.241 16.7834C76.24 13.6244 74.81 12.5054 71.129 12.7864C68.975 12.9504 68.327 12.4584 67.77 10.2374C66.746 6.15836 65.368 4.97436 61.647 4.97436C59.093 4.97436 57.778 5.68036 56.099 7.95036ZM37.162 20.2484C35.306 21.4984 32.764 24.0404 31.514 25.8964C28.296 30.6704 28.565 37.9744 31.958 37.9744C33.134 37.9744 33.32 37.2154 32.811 34.5024C31.133 25.5544 42.772 17.4564 50.017 22.5314C53.043 24.6504 52.805 26.0734 48.983 28.7204C47.199 29.9554 43.94 32.5264 41.74 34.4324L37.74 37.8994L44.919 37.9364C53.558 37.9824 54.699 37.1134 55.599 29.8014C56.233 24.6534 56.137 24.3654 52.762 21.2244C48.352 17.1214 42.358 16.7464 37.162 20.2484ZM63.752 23.1874C60.211 25.2404 58.307 28.3914 58.273 32.2554C58.235 36.6024 59.574 37.5094 64.627 36.5614C67.25 36.0694 68.134 35.3234 68.607 33.2014C68.942 31.7014 69.882 29.6204 70.697 28.5764C72.842 25.8254 75.637 28.2414 74.851 32.1684C74.225 35.2994 75.301 35.7714 77.669 33.4034C81.998 29.0734 77.231 21.9534 70.035 22.0044C67.673 22.0214 64.846 22.5534 63.752 23.1874ZM45.928 24.6204C44.554 25.9944 45.266 28.1164 46.99 27.7844C47.952 27.5984 48.74 26.8154 48.74 26.0444C48.74 24.4654 46.976 23.5724 45.928 24.6204ZM39.458 27.1284C39.704 27.8694 40.708 28.6294 41.688 28.8204C42.828 29.0404 43.309 28.6804 43.022 27.8204C42.776 27.0794 41.772 26.3194 40.792 26.1284C39.652 25.9084 39.171 26.2684 39.458 27.1284ZM67.24 27.8804C67.24 29.2944 66.723 29.6524 65.24 29.2644C63.179 28.7254 62.45 30.3684 64.256 31.4844C65.584 32.3044 64.527 33.9744 62.681 33.9744C60.784 33.9744 60.844 30.9844 62.797 28.1974C64.705 25.4724 67.24 25.2924 67.24 27.8804ZM15.24 29.9744C14.651 31.0744 13.271 31.9744 12.173 31.9744C10.409 31.9744 8.379 34.4674 9.366 35.4214C9.763 35.8054 26.606 37.9454 26.894 37.6484C26.987 37.5524 26.844 36.3354 26.577 34.9424C26.063 32.2674 20.755 27.9744 17.963 27.9744C17.054 27.9744 15.829 28.8744 15.24 29.9744ZM36.671 31.0864C35.809 32.4814 38.412 34.2024 39.595 33.0194C40.556 32.0584 39.63 29.9744 38.24 29.9744C37.755 29.9744 37.049 30.4744 36.671 31.0864ZM69.699 32.0414C68.779 33.5304 69.846 34.3394 71.76 33.6054C72.644 33.2664 73.087 32.5354 72.744 31.9814C71.934 30.6704 70.529 30.6974 69.699 32.0414ZM0.595 40.5474C2.028 51.0054 10.758 61.9914 21.678 67.0804C32.918 72.3184 51.35 71.9924 62.466 66.3594C72.165 61.4454 80.546 50.3174 81.88 40.5824L82.48 36.2034L76.962 38.0664C61.523 43.2784 20.957 43.2784 5.518 38.0664L0 36.2034L0.595 40.5474ZM22.402 72.0834C22.904 75.6324 29.995 77.1704 43.74 76.7104C55.314 76.3224 59.24 75.1344 59.24 72.0194C59.24 70.3894 58.802 70.2484 55.99 70.9704C47.266 73.2114 30.115 72.9224 23.902 70.4304C22.384 69.8214 22.123 70.1084 22.402 72.0834Z" fill="black"/>
</svg>
