<svg width="77" height="78" viewBox="0 0 77 78" fill="none" xmlns="http://www.w3.org/2000/svg">
<path fill-rule="evenodd" clip-rule="evenodd" d="M21.141 0.668029C20.23 1.26103 19.905 2.93303 20.167 5.67703C20.54 9.58803 20.423 9.79603 17.842 9.79603C16.348 9.79603 14.869 10.21 14.556 10.716C14.244 11.222 14.905 15.57 16.026 20.379C17.148 25.188 17.922 29.552 17.747 30.077C17.572 30.602 16.597 27.491 15.581 23.164C14.566 18.837 13.089 13.109 12.299 10.435C10.906 5.71703 10.771 5.59303 7.71702 6.20403C5.98602 6.55003 4.20102 7.20203 3.75102 7.65203C2.31602 9.08703 4.76502 13.623 7.16102 13.969C9.00202 14.235 9.90702 15.722 12.017 21.955C14.729 29.961 16.624 33.151 18.12 32.226C18.608 31.925 19.007 32.331 19.007 33.13C19.007 34.49 21.006 35.796 23.089 35.796C24.51 35.796 24.245 12.434 22.807 10.996C21.874 10.063 21.874 9.79603 22.807 9.79603C23.467 9.79603 24.007 10.204 24.007 10.702C24.007 11.201 24.929 11.368 26.055 11.073C27.835 10.608 28.064 9.87003 27.805 5.41703C27.535 0.783029 27.269 0.271029 25.007 0.037029C23.632 -0.105971 21.892 0.178029 21.141 0.668029ZM35.902 3.91503C35.472 5.46803 35.628 35.796 36.066 35.796C38.792 35.796 40.079 32.325 42.102 19.515C43.299 11.935 44.048 5.50403 43.766 5.22203C43.121 4.57703 36.044 3.40103 35.902 3.91503ZM49.674 7.46303C48.254 8.88303 49.108 11.589 51.144 12.121C53.091 12.631 53.22 13.129 52.607 17.75C52.238 20.539 51.66 23.536 51.325 24.41C50.878 25.575 51.221 25.902 52.611 25.638C55.24 25.137 58.195 9.16103 55.925 7.72403C54.252 6.66503 50.623 6.51403 49.674 7.46303ZM25.721 12.416C25.328 12.808 25.007 18.406 25.007 24.856C25.007 37.282 25.21 37.796 30.114 37.796C32.889 37.796 33.707 34.746 34.133 22.796L34.507 12.296L30.471 11.999C28.251 11.836 26.113 12.023 25.721 12.416ZM44.553 14.046C43.535 18.694 42.008 28.221 42.039 29.73C42.06 30.785 42.74 30.398 44.122 28.546C45.251 27.034 46.974 25.796 47.952 25.796C49.317 25.796 50 24.458 50.886 20.046C51.91 14.949 51.847 14.154 50.333 13.046C47.667 11.095 45.101 11.539 44.553 14.046ZM2.25702 16.016C-0.276982 17.238 -0.448982 18.189 1.07202 22.551C2.01502 25.258 2.65002 25.646 6.65802 25.965C9.14602 26.162 11.348 26.053 11.553 25.721C11.758 25.389 11.183 22.795 10.276 19.957C8.51602 14.454 7.02102 13.719 2.25702 16.016ZM55.848 25.773C55.637 26.407 53.449 27.188 50.985 27.51C47.424 27.975 45.839 28.867 43.246 31.867C39.009 36.768 32.557 39.28 26.377 38.433C20.649 37.648 15.437 34.528 13.457 30.699C12.245 28.356 11.298 27.796 8.54602 27.796C6.67102 27.796 3.98302 27.357 2.57202 26.821C0.434018 26.008 0.00601765 26.132 1.76519e-05 27.571C-0.0139823 31.07 8.30402 66.372 9.65502 68.546C11.008 70.723 11.556 70.796 26.658 70.796H42.263L41.625 66.81C41.275 64.617 40.253 61.283 39.356 59.401C38.458 57.518 37.988 55.288 38.311 54.445C39.181 52.179 43.327 49.762 48.692 48.394L53.433 47.184L55.663 36.74C56.889 30.996 57.519 25.919 57.062 25.459C56.606 24.998 56.059 25.139 55.848 25.773ZM59.507 45.796C59.167 46.346 59.456 46.796 60.148 46.796C60.962 46.796 61.064 47.139 60.436 47.767C59.902 48.301 56.114 49.214 52.019 49.794C43.27 51.035 40.007 52.821 40.007 56.368C40.007 58.37 40.888 59.294 44.257 60.823C46.594 61.884 47.915 62.762 47.191 62.774C46.468 62.786 44.944 62.298 43.806 61.688C41.885 60.66 41.786 60.786 42.427 63.438C45.521 76.239 46.719 77.306 57.963 77.276C67.58 77.251 71.525 75.342 72.915 70.039C75.482 60.247 75.474 60.476 73.208 61.688C72.07 62.298 70.546 62.786 69.823 62.774C69.099 62.762 70.419 61.884 72.757 60.823C76.059 59.324 77.007 58.353 77.007 56.467C77.007 53.614 75.367 52.046 71.104 50.824C66.895 49.617 66.891 51.936 71.098 53.524C77.742 56.032 69.693 59.871 58.289 59.634L50.507 59.472L59.507 58.868C64.457 58.535 69.07 57.906 69.757 57.47C71.837 56.152 71.179 54.774 67.757 53.287C65.97 52.51 65.07 51.857 65.757 51.835C67.829 51.77 67.163 48.019 64.784 46.353C62.224 44.559 60.391 44.366 59.507 45.796ZM51.007 52.237C51.007 52.48 50.557 52.956 50.007 53.296C49.457 53.636 49.007 53.437 49.007 52.855C49.007 52.273 49.457 51.796 50.007 51.796C50.557 51.796 51.007 51.994 51.007 52.237ZM46.207 53.996C44.49 55.713 44.715 56.569 47.082 57.32C48.224 57.682 48.957 58.179 48.712 58.425C48.073 59.063 43.007 56.631 43.007 55.685C43.007 55.251 43.795 54.437 44.757 53.876C47.118 52.501 47.657 52.546 46.207 53.996ZM53.276 63.452C52.599 63.726 51.249 63.743 50.276 63.489C49.303 63.235 49.857 63.011 51.507 62.991C53.157 62.971 53.953 63.178 53.276 63.452ZM67.257 63.458C66.57 63.736 65.445 63.736 64.757 63.458C64.07 63.181 64.632 62.954 66.007 62.954C67.382 62.954 67.945 63.181 67.257 63.458ZM60.257 64.458C59.57 64.736 58.445 64.736 57.757 64.458C57.07 64.181 57.632 63.954 59.007 63.954C60.382 63.954 60.945 64.181 60.257 64.458Z" fill="black"/>
</svg>
